<svg xmlns="http://www.w3.org/2000/svg" xmlns:svgjs="http://svgjs.com/svgjs" xmlns:xlink="http://www.w3.org/1999/xlink" viewBox="0 123.3 288 41.4"><svg xmlns="http://www.w3.org/2000/svg" width="288" height="288" viewBox="0 0 173.65 24.96"><path d="M39.82 12.48a6.52 6.52 0 016.83-6.64A5.88 5.88 0 0152 9l-2.35 1.15a3.49 3.49 0 00-3-1.87 4 4 0 00-4 4.22 4 4 0 004 4.21 3.46 3.46 0 003-1.86L52 16a5.92 5.92 0 01-5.37 3.16A6.52 6.52 0 0139.82 12.48zM53 12.48a6.71 6.71 0 0113.42 0 6.71 6.71 0 01-13.42 0zm10.61 0a3.9 3.9 0 00-3.91-4.22c-2.37 0-3.89 1.81-3.89 4.22a3.91 3.91 0 107.8 0zM77.22 18.89L71.1 10.52v8.37H68.37V6.05h2.81l5.94 8.06V6.05h2.74V18.89zM81.78 12.48a6.52 6.52 0 016.83-6.64A5.88 5.88 0 0194 9l-2.35 1.15a3.48 3.48 0 00-3-1.87 4 4 0 00-4 4.22 4 4 0 004 4.21 3.45 3.45 0 003-1.86L94 16a5.92 5.92 0 01-5.37 3.16A6.52 6.52 0 0181.78 12.48zM95 12.48a6.71 6.71 0 0113.41 0 6.71 6.71 0 01-13.41 0zm10.6 0a3.9 3.9 0 00-3.91-4.22c-2.36 0-3.88 1.81-3.88 4.22a3.91 3.91 0 107.79 0zM117.58 18.89l-2.52-4.56h-2v4.56h-2.73V6.05h6a4 4 0 014.31 4.14 3.68 3.68 0 01-2.8 3.81l2.88 4.89zm.27-8.7a1.73 1.73 0 00-1.92-1.73h-2.87v3.46h2.87A1.73 1.73 0 00117.85 10.19zM122.7 18.89V6.05h5.06c4 0 6.81 2.56 6.81 6.43s-2.79 6.41-6.81 6.41zm9.08-6.41a3.75 3.75 0 00-4-4h-2.33v8h2.33A3.84 3.84 0 00131.78 12.48zM145.1 18.89l-.79-2.18h-5.5L138 18.89h-3.12l5-12.84h3.42l4.94 12.84zM141.56 8.78l-2 5.53h4zM158.64 18.89l-6.12-8.37v8.37h-2.73V6.05h2.81l6 8.06V6.05h2.73V18.89zM167.17 18.89V8.46h-3.76V6.05h10.24V8.46h-3.73V18.89z" class="colorfff svgShape"/><rect width="34.94" height="24.96" class="color000 svgShape"/><path fill="#38dce0" d="M17.47,10A7.5,7.5,0,0,1,10,2.5H5A12.49,12.49,0,0,0,17.47,15,7.5,7.5,0,0,1,25,22.46h5A12.5,12.5,0,0,0,17.47,10Z" class="color38dce0 svgShape"/><path fill="#ffea50" d="M25,2.5A7.5,7.5,0,0,1,17.47,10,12.5,12.5,0,0,0,5,22.46h5A7.5,7.5,0,0,1,17.47,15,12.49,12.49,0,0,0,30,2.5Z" class="colorffea50 svgShape"/></svg></svg>